# xmcd CD database file
#
# Track frame offsets:
#	150
#	16709
#	36601
#	48036
#	66072
#
# Disc length: 1146 seconds
#
# Revision: 0
# Processed by: cddbd v1.5.2PL0 Copyright (c) Steve Scherf et al.
# Submitted via: CDex 1.51
#
DISCID=36047805
DTITLE=Ricardo Blaschek - Demo
DYEAR=2004
DGENRE=Country
TTITLE0=Vem Pra Festa Peão
TTITLE1=Volta Pra Mim
TTITLE2=Linda Morena
TTITLE3=Águas Passadas
TTITLE4=Volta Comigo
EXTD=YEAR: 2004
EXTT0=
EXTT1=
EXTT2=
EXTT3=
EXTT4=
PLAYORDER=
